<svg version="1.1" xmlns="http://www.w3.org/2000/svg" viewBox="0 0 128 128">
<path style="fill:#3076F3;" d="M63.9,0.2c-0.3,0-0.6,0.1-0.8,0.3L1.5,50.1c-0.7,0.5-0.7,1.6,0,2.1L27,67.5c0.6,0.5,1.5,0.4,2.1-0.2L55.8,42V20.2c0-0.6,0.4-1.1,1-1.1h14.2c0.6,0,1,0.5,1,1.1V42l26.7,25.3c0.6,0.6,1.5,0.6,2.1,0.2l25.6-15.3c0.7-0.5,0.7-1.6,0-2.1L64.8,0.5C64.5,0.3,64.2,0.2,63.9,0.2z"/>
<path style="fill:#3D82F5;" d="M98.9,81.4L72.1,56.1V42h-16v14.1L29.1,81.4c-0.6,0.6-0.6,1.5,0,2.1l34.1,34.1c0.3,0.3,0.7,0.4,1,0.4c0.4,0,0.7-0.1,1-0.4l34.1-34.1C99.4,82.9,99.4,82,98.9,81.4z"/>
</svg>